<svg width="480" height="495" viewBox="0 0 480 495" fill="none" xmlns="http://www.w3.org/2000/svg">
<g filter="url(#filter0_d_5_36)">
<path fill-rule="evenodd" clip-rule="evenodd" d="M141.492 5L156 18.5809L35.0168 131.83L156 245.079L141.492 258.66L6 131.83L141.492 5Z" fill="url(#paint0_linear_5_36)"/>
<path fill-rule="evenodd" clip-rule="evenodd" d="M329.023 484.662L316 470.597L437.788 357.831L316 245.065L329.023 231L466 357.831L329.023 484.662Z" fill="url(#paint1_linear_5_36)"/>
<path fill-rule="evenodd" clip-rule="evenodd" d="M276.51 59.1429H179V42H294V171.429C294 186.515 289.219 199.626 278.576 208.823C268.112 217.864 253.267 222 235.407 222C217.272 222 201.974 217.351 191.936 203.218C182.539 189.986 179 169.978 179 142.714H196.49C196.49 169.451 200.166 184.8 206.292 193.425C211.777 201.149 220.309 204.857 235.407 204.857C250.778 204.857 260.857 201.279 267.01 195.963C272.982 190.802 276.51 182.913 276.51 171.429V59.1429Z" fill="url(#paint2_radial_5_36)"/>
<path fill-rule="evenodd" clip-rule="evenodd" d="M179 268H240.667C250.333 268 263.472 270.918 274.417 279.696C285.751 288.786 294 303.606 294 325.475C294 347.336 285.76 362.243 274.465 371.439C263.543 380.331 250.4 383.396 240.667 383.396H195.667V448H179V268ZM195.667 365.574H240.667C247.6 365.574 256.957 363.293 264.369 357.259C271.406 351.53 277.333 341.932 277.333 325.475C277.333 309.027 271.415 299.566 264.417 293.953C257.028 288.027 247.667 285.822 240.667 285.822H195.667V365.574Z" fill="url(#paint3_radial_5_36)"/>
</g>
<defs>
<filter id="filter0_d_5_36" x="0" y="0" width="480" height="499.662" filterUnits="userSpaceOnUse" color-interpolation-filters="sRGB">
<feFlood flood-opacity="0" result="BackgroundImageFix"/>
<feColorMatrix in="SourceAlpha" type="matrix" values="0 0 0 0 0 0 0 0 0 0 0 0 0 0 0 0 0 0 127 0" result="hardAlpha"/>
<feOffset dx="4" dy="5"/>
<feGaussianBlur stdDeviation="5"/>
<feComposite in2="hardAlpha" operator="out"/>
<feColorMatrix type="matrix" values="0 0 0 0 0 0 0 0 0 0 0 0 0 0 0 0 0 0 0.25 0"/>
<feBlend mode="normal" in2="BackgroundImageFix" result="effect1_dropShadow_5_36"/>
<feBlend mode="normal" in="SourceGraphic" in2="effect1_dropShadow_5_36" result="shape"/>
</filter>
<linearGradient id="paint0_linear_5_36" x1="81" y1="5" x2="81" y2="336.5" gradientUnits="userSpaceOnUse">
<stop stop-color="#154690"/>
<stop offset="1" stop-opacity="0"/>
</linearGradient>
<linearGradient id="paint1_linear_5_36" x1="391" y1="484.662" x2="391" y2="140.5" gradientUnits="userSpaceOnUse">
<stop stop-color="#154690"/>
<stop offset="1" stop-opacity="0"/>
</linearGradient>
<radialGradient id="paint2_radial_5_36" cx="0" cy="0" r="1" gradientUnits="userSpaceOnUse" gradientTransform="translate(236.5 132) rotate(90) scale(258.5 165.153)">
<stop stop-color="#154690"/>
<stop offset="1" stop-color="#154690" stop-opacity="0"/>
</radialGradient>
<radialGradient id="paint3_radial_5_36" cx="0" cy="0" r="1" gradientUnits="userSpaceOnUse" gradientTransform="translate(236.5 358) rotate(90) scale(240.5 153.653)">
<stop stop-color="#154690"/>
<stop offset="1" stop-opacity="0"/>
</radialGradient>
</defs>
</svg>
